<svg width="30" height="30" fill="none" xmlns="http://www.w3.org/2000/svg"><path d="M18.463 8.677a3.463 3.463 0 10-6.926.001 3.463 3.463 0 006.926 0zm-6.107 0a2.643 2.643 0 115.286.001 2.643 2.643 0 01-5.286 0z" fill="#F5BF23"/><path d="M28.905 28.376L25.56 19.61a.41.41 0 00-.383-.264H18.85l.115-.187c2.435-4.031 3.66-7.558 3.643-10.48a7.609 7.609 0 00-15.217-.003c-.018 2.925 1.207 6.452 3.642 10.483l.116.187H4.821a.411.411 0 00-.383.264l-3.343 8.766a.41.41 0 00.383.556H28.52a.41.41 0 00.384-.556zM8.21 8.677a6.788 6.788 0 1113.577.002c.035 5.826-5.412 13.012-6.788 14.735-1.377-1.722-6.824-8.906-6.789-14.737zm6.476 15.651a.41.41 0 00.625 0 43.532 43.532 0 003.023-4.162h6.56l.525 1.377-12.818 4.559-4.57-5.937h3.631a43.547 43.547 0 003.024 4.163zm-2.1 2.649h.003l7.647-2.719 2.966 3.854H9.398l3.19-1.135zm-7.483-6.812h1.894l4.79 6.226-4.838 1.72H2.073l3.03-7.946zm19.135 7.947l-3.19-4.144 4.664-1.659 2.213 5.803H24.24z" fill="#F5BF23"/></svg>