<svg width="30" height="30" fill="none" xmlns="http://www.w3.org/2000/svg"><path d="M4.117 25.363h21.739a3.197 3.197 0 003.193-3.193V7.419a3.197 3.197 0 00-3.193-3.193H4.116A3.197 3.197 0 00.925 7.419v14.75a3.197 3.197 0 003.193 3.194zm0-.951c-.49 0-.968-.16-1.358-.46l6.502-6.65a.475.475 0 10-.68-.664L2.14 23.226a2.232 2.232 0 01-.265-1.056V8.467l11.052 9.358a3.183 3.183 0 004.128-.002l11.043-9.365V22.17c0 .37-.091.734-.267 1.06l-6.48-6.593a.476.476 0 00-.677.666l6.537 6.652c-.39.297-.866.457-1.355.457H4.116zm0-19.235h21.739a2.245 2.245 0 012.232 2.042L16.44 17.098a2.235 2.235 0 01-2.899.001L1.884 7.228c.1-1.16 1.07-2.05 2.233-2.051z" fill="#F5BF23"/></svg>