<svg width="17" height="29" fill="none" xmlns="http://www.w3.org/2000/svg"><path d="M10.323 28.945H5.991c-.724 0-1.312-.609-1.312-1.358V17.473H2.15c-.723 0-1.312-.61-1.312-1.358v-4.334c0-.749.589-1.358 1.312-1.358h2.53v-2.17c0-2.152.653-3.983 1.887-5.294C7.806 1.642 9.54.945 11.58.945l3.304.006c.723.001 1.31.61 1.31 1.358v4.024c0 .749-.588 1.358-1.311 1.358l-2.225.001c-.678 0-.851.14-.888.184-.06.071-.133.274-.133.832v1.715h3.079c.231 0 .456.06.649.17.416.241.675.697.675 1.189l-.002 4.333c0 .749-.588 1.358-1.312 1.358h-3.09v10.114c0 .75-.588 1.358-1.312 1.358zm-4.058-1.641h3.785V16.738c0-.5.393-.906.876-.906h3.525l.002-3.767h-3.527c-.483 0-.877-.407-.877-.907v-2.45c0-.64.064-1.37.531-1.918.565-.663 1.456-.74 2.077-.74h1.95V2.592l-3.029-.005c-3.277 0-5.313 2.171-5.313 5.666v2.905c0 .5-.393.907-.876.907H2.425v3.767h2.964c.483 0 .876.406.876.906v10.566zM14.88 2.592z" fill="#898989"/></svg>