<svg width="26" height="26" fill="none" xmlns="http://www.w3.org/2000/svg"><path d="M18.962 0H7.038A7.046 7.046 0 000 7.038v11.924A7.046 7.046 0 007.038 26h11.924A7.046 7.046 0 0026 18.962V7.038A7.046 7.046 0 0018.962 0zm5.514 18.962a5.52 5.52 0 01-5.514 5.514H7.038a5.52 5.52 0 01-5.514-5.514V7.038a5.52 5.52 0 015.514-5.514h11.924a5.52 5.52 0 015.514 5.514v11.924z" fill="#898989"/><path d="M13 5.89c-3.92 0-7.11 3.19-7.11 7.11 0 3.92 3.19 7.109 7.11 7.109 3.92 0 7.109-3.19 7.109-7.11 0-3.92-3.19-7.108-7.11-7.108zm0 12.695A5.591 5.591 0 017.415 13 5.591 5.591 0 0113 7.415 5.591 5.591 0 0118.585 13 5.591 5.591 0 0113 18.585zm7.28-15.219c-1.16 0-2.101.943-2.101 2.1 0 1.16.942 2.102 2.1 2.102a2.102 2.102 0 00.001-4.201zm0 2.677a.577.577 0 110-1.154.577.577 0 010 1.154z" fill="#898989"/></svg>