<svg width="26" height="26" fill="none" xmlns="http://www.w3.org/2000/svg"><path d="M3.51.217c-.953 0-1.82.346-2.47.996A3.445 3.445 0 000 3.683c0 .954.39 1.82 1.04 2.47.65.65 1.56 1.04 2.427.997h.086c.867 0 1.69-.347 2.34-.997a3.474 3.474 0 001.04-2.47c.044-.91-.346-1.776-.996-2.426A3.28 3.28 0 003.51.217zm1.777 5.33c-.477.476-1.127.78-1.82.736-.65 0-1.344-.26-1.82-.736-.52-.477-.78-1.17-.78-1.864 0-.693.26-1.343.78-1.863.476-.477 1.126-.737 1.863-.737.65 0 1.3.26 1.777.737.52.52.78 1.17.78 1.863 0 .694-.26 1.387-.78 1.864zM5.2 8.017H1.69c-.694 0-1.257.563-1.257 1.3v15.166c0 .694.606 1.3 1.3 1.3h3.466c.694 0 1.3-.606 1.3-1.256V9.317c0-.694-.606-1.3-1.3-1.3zm.433 16.51c0 .216-.217.39-.434.39H1.733a.466.466 0 01-.434-.434V9.317c0-.217.174-.434.39-.434H5.2c.217 0 .434.217.434.434v15.21zm14.3-16.943h-.91c-1.69 0-3.293.737-4.333 1.907v-.607c0-.433-.434-.867-.867-.867H9.49c-.39 0-.867.347-.867.824v16.163c0 .477.477.78.867.78h4.766c.39 0 .867-.303.867-.78v-9.36c0-1.43 1.04-2.557 2.383-2.557.694 0 1.344.26 1.82.737.434.39.607.997.607 1.777v9.316c0 .434.433.867.867.867h4.333c.433 0 .867-.433.867-.867v-11.18c0-3.466-2.644-6.153-6.067-6.153zm5.2 17.29l-.043.043h-4.247l-.043-9.316c0-1.04-.26-1.82-.824-2.384a3.408 3.408 0 00-2.426-.996c-1.82.043-3.25 1.516-3.25 3.423v9.273H9.533V8.884h4.29l.043.043v2.73l1.17-1.17.044-.043c.866-1.213 2.383-1.993 3.986-1.993h.91c2.904 0 5.157 2.34 5.157 5.286v11.137z" fill="#898989"/></svg>