<svg width="26" height="26" fill="none" xmlns="http://www.w3.org/2000/svg"><path d="M25.851 4.793a.58.58 0 00-.53-.132l-.882.309c.53-.618.882-1.28 1.103-1.898.088-.22.044-.397-.088-.53a.47.47 0 00-.53-.088c-1.235.53-2.295.971-3.177 1.236 0 .044-.044 0-.088 0-.707-.397-2.428-1.28-3.663-1.28-3.134.044-5.649 2.692-5.649 5.913V8.5c-4.59-.883-7.105-2.207-9.841-5.075l-.441-.441-.265.53c-1.5 2.867-.441 5.47 1.28 7.236-.795-.133-1.324-.397-1.81-.795-.176-.132-.397-.176-.618-.044-.176.088-.264.353-.22.574.618 2.074 2.162 3.751 3.84 4.766-.795 0-1.457-.088-2.12-.53a.622.622 0 00-.617.045c-.176.132-.265.353-.176.573.794 2.25 2.338 3.442 4.81 3.751-1.28.75-2.957 1.368-5.56 1.412a.628.628 0 00-.574.398c-.089.265 0 .485.176.662 1.589 1.28 5.12 2.03 9.488 2.03 7.767 0 14.122-6.929 14.122-15.446v-.132c.97-.486 1.765-1.413 2.162-2.692a.58.58 0 00-.132-.53zm-2.648 2.515l-.265.089v.75c0 8.032-5.957 14.563-13.239 14.563-4.016 0-6.708-.662-8.164-1.368 3.045-.22 4.81-1.191 6.178-2.25l1.104-.795H7.493c-2.516 0-4.06-.706-4.943-2.383.794.265 1.633.265 2.56.22.353-.044.706-.044 1.059-.044l.132-.882c-1.677-.486-3.663-1.986-4.634-4.016.883.397 1.854.485 2.736.485h1.369l-1.104-.794c-.926-.662-3.663-3-2.339-6.355 2.825 2.78 5.517 4.06 10.371 4.943l.53.088V8.323c0-2.736 2.118-4.986 4.766-5.03 1.015-.045 2.692.882 3.177 1.147.265.132.53.176.795.088.662-.22 1.456-.53 2.338-.882a7.051 7.051 0 01-1.632 1.853c-.177.133-.221.397-.133.618.088.22.353.309.574.22l1.721-.573c-.309.574-.794 1.236-1.633 1.544z" fill="#898989"/></svg>