<svg width="40" height="40" fill="none" xmlns="http://www.w3.org/2000/svg"><path d="M5.762 30.012a2.221 2.221 0 00-2.218 2.219 2.22 2.22 0 002.218 2.218 2.221 2.221 0 002.218-2.218 2.221 2.221 0 00-2.218-2.22zm0 3.266a1.048 1.048 0 010-2.094 1.048 1.048 0 010 2.094zM30.44 34.45a2.221 2.221 0 002.219-2.22 2.221 2.221 0 00-2.218-2.218 2.221 2.221 0 00-2.218 2.219 2.22 2.22 0 002.218 2.218zm0-3.267a1.048 1.048 0 010 2.095 1.048 1.048 0 010-2.095zm-22.111-.317a.586.586 0 00-.088.522 2.84 2.84 0 010 1.685.586.586 0 00.56.76h18.6a.586.586 0 00.56-.76 2.839 2.839 0 010-1.685.587.587 0 00-.56-.76h-18.6a.586.586 0 00-.472.238zm1.188.934h17.168a4.062 4.062 0 000 .861H9.517a4.055 4.055 0 000-.861zm6.149-9.75a.586.586 0 100 1.172h1.364a.586.586 0 100-1.172h-1.364zM3.335 24.142a.586.586 0 00.527-.33l1.383-2.832a.586.586 0 00-1.053-.514l-1.383 2.832a.586.586 0 00.526.844zm2.771 0a.586.586 0 00.527-.33l1.383-2.832a.586.586 0 00-1.053-.514L5.58 23.298a.586.586 0 00.526.844zm2.772 0a.587.587 0 00.527-.33l1.383-2.832a.586.586 0 10-1.053-.514l-1.383 2.832a.586.586 0 00.526.844z" fill="#F5BF23"/><path d="M39.786 20.804l-1.444-3.344a.599.599 0 00-.024-.05l-2.47-5.902a.586.586 0 10-1.081.452l2.27 5.425-.776.335-5.189-9.962-.115-.221-.687-1.318-.001-.004a.967.967 0 01-.043-.097c-.005-.01-.008-.021-.011-.032a.928.928 0 01-.023-.072l-.008-.035a1.013 1.013 0 01-.023-.19.966.966 0 011.858-.391l1.834 4.38a.586.586 0 101.08-.452L33.1 4.946a2.143 2.143 0 00-2.786-1.153 2.144 2.144 0 00-1.286 1.574l-8.91 3.666a3.313 3.313 0 00-.465-.034h-2.372c-.837 0-1.519.682-1.519 1.52v2.517H14.19c-.747 0-1.355.608-1.355 1.355v3.328a.184.184 0 01-.183.183H1.355c-.747 0-1.355.609-1.355 1.356v1.422a.586.586 0 101.172 0v-1.422c0-.101.082-.184.183-.184h11.296c.747 0 1.355-.608 1.355-1.355v-3.328c0-.101.082-.184.183-.184h8.58a.22.22 0 01.2.125l1.781 3.65a.79.79 0 01.078.338v7.098c0 .123-.1.223-.223.223H1.355a.184.184 0 01-.183-.183V23.04a.586.586 0 10-1.172 0v2.418c0 .747.608 1.355 1.355 1.355h10.316v1.28h-6.46a4.142 4.142 0 00-4.136 4.138 4.141 4.141 0 004.136 4.137h25.781a4.142 4.142 0 004.137-4.139 4.141 4.141 0 00-4.137-4.136H23.86v-1.28h.745c.77 0 1.395-.626 1.395-1.395V18.32c0-.294-.068-.588-.197-.851l-1.781-3.65a1.404 1.404 0 00-1.071-.77v-.3l7.355-3.925 4.876 9.363-5.5 2.377a1.01 1.01 0 00-.015 1.847l5.296 2.393a2.598 2.598 0 002.111.018l1.35-.584a2.616 2.616 0 001.362-3.434zm-26.943 6.009h9.845v1.28h-9.845v-1.28zm18.15 2.452a2.968 2.968 0 012.964 2.966 2.968 2.968 0 01-2.965 2.965H5.212a2.968 2.968 0 01-2.966-2.966 2.968 2.968 0 012.965-2.965h25.781zm-9.215-16.967v.738h-4.844v-2.517c0-.192.156-.348.348-.348h2.371a2.123 2.123 0 01.58.081l.035.01a2.094 2.094 0 01.312.122l.047.025a2.034 2.034 0 01.25.152l.042.03a2.17 2.17 0 01.248.216l.023.024a2.093 2.093 0 01.212.261l.002.003c.033.048.064.098.093.148l.003.005c.117.205.2.43.243.669l.004.018c.01.055.017.11.022.167l.002.022c.004.058.007.115.007.174zm1.069-.822a3.288 3.288 0 00-.6-1.212l-.021-.026a3.368 3.368 0 00-.207-.234l-.049-.05a3.083 3.083 0 00-.08-.076l-.024-.024a3.32 3.32 0 00-.22-.183l7.503-3.087.007.015a2.1 2.1 0 00.075.161l.534 1.024-6.918 3.692zm15.112 11.687l-1.35.583c-.37.16-.796.157-1.164-.01l-4.962-2.242 5.696-2.461a.55.55 0 00.048-.018l1.272-.552 1.211 2.805c.315.73-.022 1.58-.751 1.895z" fill="#F5BF23"/><path d="M23.08 21.269a.755.755 0 00.753-.754V18.49a.759.759 0 00-.076-.33l-1.354-2.776a.758.758 0 00-.678-.423H15.74a.755.755 0 00-.754.754v2.757c0 .2.082.395.224.536l2.067 2.042a.75.75 0 00.53.218h5.273zm-6.922-2.971v-2.164h5.306l1.198 2.453v1.51h-4.683l-1.82-1.8z" fill="#F5BF23"/></svg>