<svg width="40" height="40" fill="none" xmlns="http://www.w3.org/2000/svg"><path d="M39.375 9.375h-2.5v-3.75h-17.5v-2.5h-5v2.5h-1.25v-2.5h-5v2.5H6.562L4.376 8.542v.833h-2.5v3.75h2.5v5.239l-3.75 1.875v10.386h3.75v1.25h2.537a5.631 5.631 0 005.588 5 5.631 5.631 0 005.588-5h5.074a5.631 5.631 0 005.588 5 5.631 5.631 0 005.588-5h2.537v-18.75h2.5v-3.75zm-23.75-5h2.5v1.25h-2.5v-1.25zm-6.25 0h2.5v1.25h-2.5v-1.25zm-6.25 7.5v-1.25h1.25v1.25h-1.25zm-1.25 17.5v-8.364l2.5-1.25v9.614h-2.5zm10.625 6.25c-2.2 0-4.02-1.633-4.325-3.75h1.263a3.13 3.13 0 003.062 2.5 3.13 3.13 0 003.062-2.5h1.263a4.378 4.378 0 01-4.325 3.75zm-1.76-3.75h3.52a1.873 1.873 0 01-1.76 1.25 1.872 1.872 0 01-1.76-1.25zm18.01 3.75c-2.2 0-4.02-1.633-4.325-3.75h1.263a3.13 3.13 0 003.062 2.5 3.13 3.13 0 003.062-2.5h1.263a4.378 4.378 0 01-4.325 3.75zm-1.76-3.75h3.52a1.873 1.873 0 01-1.76 1.25 1.872 1.872 0 01-1.76-1.25zm8.635-1.25h-30V8.958l1.563-2.083h28.437v23.75zm2.5-18.75h-1.25v-1.25h1.25v1.25z" fill="#F5BF23"/><path d="M34.375 8.125h-17.5v11.25h17.5V8.125zm-1.25 5h-6.25v-3.75h6.25v3.75zm-15 5v-8.75h7.5v5h7.5v3.75h-15z" fill="#F5BF23"/><path d="M21.875 10.625a2.502 2.502 0 00-2.5 2.5c0 1.379 1.121 2.5 2.5 2.5s2.5-1.121 2.5-2.5-1.121-2.5-2.5-2.5zm0 3.75a1.251 1.251 0 010-2.5 1.251 1.251 0 010 2.5zm7.5-3.75h-1.25v1.25h1.25v-1.25zm2.5 0h-1.25v1.25h1.25v-1.25zm0 5h-1.25v1.25h1.25v-1.25zm-2.5 0h-1.25v1.25h1.25v-1.25zm-2.5 0h-1.25v1.25h1.25v-1.25zM9.68 17.733c-.126.379-.062.8.172 1.124.235.324.613.518 1.013.518a1.24 1.24 0 001.116-.69l3.405-6.81h-2.643l1.25-3.75H9.535l-2.25 7.5h3.098l-.703 2.108zm-.715-3.358l1.5-5h1.793l-1.25 3.75h2.357l-2.499 5.003 1.252-3.753H8.965zm14.785 6.25h-15A1.877 1.877 0 006.875 22.5v5c0 1.034.841 1.875 1.875 1.875h15a1.877 1.877 0 001.875-1.875v-5a1.877 1.877 0 00-1.875-1.875zm0 7.5h-15a.626.626 0 01-.625-.625v-5c0-.344.28-.625.625-.625h15c.345 0 .625.28.625.625v.625H22.5A1.877 1.877 0 0020.625 25c0 1.034.841 1.875 1.875 1.875h1.875v.625c0 .344-.28.625-.625.625zm.625-3.75v1.25H22.5a.626.626 0 010-1.25h1.875zm3.75 5h6.25v-8.75h-6.25v8.75zm1.25-7.5h3.75v6.25h-3.75v-6.25z" fill="#F5BF23"/></svg>