<svg width="40" height="40" fill="none" xmlns="http://www.w3.org/2000/svg"><g clip-path="url(#clip0_177:70)" fill="#F5BF23"><path d="M31.672 24.689a1.94 1.94 0 00-1.942 1.933 1.94 1.94 0 001.942 1.933 1.94 1.94 0 001.941-1.933 1.94 1.94 0 00-1.941-1.933zm0 2.694a.766.766 0 01-.77-.761c0-.42.345-.762.77-.762.424 0 .77.342.77.762s-.346.761-.77.761zm-1.28-6.967h.666a.586.586 0 100-1.172h-.666a.586.586 0 000 1.172zM6.484 24.689a1.94 1.94 0 00-1.941 1.933 1.94 1.94 0 001.941 1.933 1.94 1.94 0 001.942-1.933 1.94 1.94 0 00-1.942-1.933zm0 2.694a.766.766 0 01-.77-.761c0-.42.346-.762.77-.762.425 0 .77.342.77.762s-.345.761-.77.761zm10.509-2.694a1.94 1.94 0 00-1.941 1.933 1.94 1.94 0 001.941 1.933 1.94 1.94 0 001.941-1.933 1.94 1.94 0 00-1.94-1.933zm0 2.694a.766.766 0 01-.77-.761c0-.42.346-.762.77-.762.424 0 .77.342.77.762s-.346.761-.77.761zM9.404 14.46a.844.844 0 00-.702.376c-1.098 1.64-1.655 2.817-1.655 3.498a2.36 2.36 0 002.357 2.357 2.36 2.36 0 002.357-2.357c0-.681-.557-1.858-1.655-3.498a.844.844 0 00-.702-.375zm1.185 3.874c0 .654-.532 1.186-1.185 1.186a1.187 1.187 0 01-1.185-1.186c0-.302.369-1.157 1.185-2.432.816 1.275 1.185 2.13 1.185 2.432zm9.441-3.838h-3.037a.586.586 0 100 1.172h3.036a.586.586 0 000-1.172zm0 2.494h-3.037a.586.586 0 000 1.172h3.036a.586.586 0 100-1.172zm0 2.495h-3.037a.586.586 0 100 1.172h3.036a.586.586 0 100-1.172z"/><path d="M38.465 23.644c.016-.088.025-.178.025-.269V17.05c0-.366-.14-.714-.393-.979l-4.13-4.31a1.43 1.43 0 00-1.029-.438h-5.471a.586.586 0 00-.586.586v1.351a6.738 6.738 0 00-4.73-1.937h-1.296a.586.586 0 000 1.171h1.296a5.57 5.57 0 014.62 2.458.586.586 0 00.11.12v5.952a.59.59 0 00-.043.058 5.556 5.556 0 01-4.688 2.558h-1.873a4.449 4.449 0 00-3.285-1.444c-1.299 0-2.47.557-3.284 1.444h-3.94a4.449 4.449 0 00-3.284-1.444 4.44 4.44 0 00-2.316.65 5.589 5.589 0 01-2.704-4.779c0-3.073 2.5-5.572 5.572-5.572h11.475a.586.586 0 000-1.172h-4.952v-1.104c0-.697-.567-1.265-1.265-1.265H9.043c-.698 0-1.265.568-1.265 1.265v1.104h-.742a6.752 6.752 0 00-6.744 6.744 6.763 6.763 0 002.923 5.557l-.022.023a.586.586 0 00-.086-.007H1.633c-.9 0-1.633.732-1.633 1.633v.303c0 .9.732 1.632 1.633 1.632h.442a4.447 4.447 0 004.409 3.84 4.447 4.447 0 004.409-3.84h1.69a4.447 4.447 0 004.41 3.84 4.447 4.447 0 004.408-3.84h.995a.586.586 0 000-1.172H21.4a4.374 4.374 0 00-.35-1.224h6.563a4.37 4.37 0 00-.35 1.224H24.74a.586.586 0 100 1.172h2.523a4.447 4.447 0 004.409 3.84 4.447 4.447 0 004.409-3.84h2.286c.9 0 1.633-.732 1.633-1.633v-.302c0-.868-.68-1.577-1.535-1.628zM8.95 10.218c0-.051.042-.093.094-.093h3.251c.051 0 .093.042.093.093v1.104H8.95v-1.104zm3.986 14.593a4.367 4.367 0 00-.351 1.224h-1.691a4.37 4.37 0 00-.35-1.224h2.392zm-11.763.764v-.303a.46.46 0 01.46-.461h.794a4.37 4.37 0 00-.35 1.224h-.443a.461.461 0 01-.461-.46zm5.312 4.3c-1.807 0-3.277-1.46-3.277-3.254s1.47-3.254 3.277-3.254c1.807 0 3.277 1.46 3.277 3.254 0 1.795-1.47 3.255-3.277 3.255zm10.509 0c-1.807 0-3.278-1.46-3.278-3.254s1.47-3.254 3.277-3.254c1.807 0 3.278 1.46 3.278 3.254 0 1.795-1.47 3.255-3.277 3.255zm20.325-8.803h-.661a.42.42 0 01-.42-.42v-.107a.42.42 0 01.42-.42h.661v.947zm-.008-4.082h-6.202a.17.17 0 01-.171-.17v-2.183a.17.17 0 01.17-.17h3.83l2.314 2.414c.03.03.049.069.06.11zm-10.43 5.886v.763h-.926c.33-.226.64-.48.927-.763zm1.173.763V12.493h4.885c.069 0 .135.029.182.078l.694.723h-2.706c-.74 0-1.343.602-1.343 1.343v2.183c0 .74.602 1.342 1.343 1.342h6.21v.792h-.661c-.877 0-1.591.714-1.591 1.591v.107c0 .877.713 1.591 1.591 1.591h.661v1.132c0 .09-.035.176-.099.24-.008.007-.014.016-.022.024h-2.241a4.448 4.448 0 00-3.284-1.444c-1.3 0-2.47.557-3.284 1.444h-.335zm3.619 6.236c-1.808 0-3.278-1.46-3.278-3.254s1.47-3.254 3.278-3.254c1.807 0 3.277 1.46 3.277 3.254 0 1.795-1.47 3.255-3.277 3.255zm7.156-4.3a.46.46 0 01-.46.46H36.08a4.37 4.37 0 00-.35-1.224h2.637a.46.46 0 01.461.46v.303z"/></g><defs><clipPath id="clip0_177:70"><path fill="#fff" d="M0 0h40v40H0z"/></clipPath></defs></svg>