<svg width="40" height="40" fill="none" xmlns="http://www.w3.org/2000/svg"><path d="M37.2 18.075l-1.036-4.143a.626.626 0 00.496-.613v-.668c0-1.45-1.18-2.63-2.63-2.63h-4.72V8.643c0-.714-.58-1.294-1.294-1.294H3.967c-.714 0-1.295.58-1.295 1.294V20a.626.626 0 101.253 0V8.643c0-.023.019-.042.042-.042h24.05c.023 0 .041.019.041.042V20a.626.626 0 101.253 0v-.71h7.392c.909 0 1.68.598 1.946 1.42H36.7a.626.626 0 00-.626.626v1.336c0 1.082.88 1.963 1.962 1.963h.71v2.755H37.11a3.973 3.973 0 00-3.749-2.672 3.973 3.973 0 00-3.749 2.672h-.301v-4.718a.626.626 0 00-1.253 0v4.718H15.064a3.973 3.973 0 00-3.749-2.672 3.973 3.973 0 00-3.748 2.672h-3.6a.042.042 0 01-.042-.041V25.97h2.714a.626.626 0 000-1.253H.626a.626.626 0 000 1.253h2.046v1.378c0 .713.58 1.294 1.295 1.294H7.35l-.001.042a3.971 3.971 0 003.966 3.966 3.971 3.971 0 003.967-3.966l-.001-.042h14.114v.042a3.971 3.971 0 003.966 3.966 3.971 3.971 0 003.967-3.966l-.002-.042h2.048c.345 0 .626-.28.626-.626v-6.68c0-1.65-1.217-3.02-2.8-3.262zm-7.889-6.801h4.718c.76 0 1.378.618 1.378 1.377v.042h-6.096v-1.42zm0 6.764v-4.092h5.565l1.023 4.092h-6.588zm-17.996 13.36a2.717 2.717 0 01-2.714-2.713 2.717 2.717 0 012.714-2.714 2.717 2.717 0 012.714 2.714 2.717 2.717 0 01-2.714 2.714zm22.046 0a2.717 2.717 0 01-2.714-2.713 2.717 2.717 0 012.714-2.714 2.717 2.717 0 012.714 2.714 2.717 2.717 0 01-2.714 2.714zm5.386-8.016h-.71a.71.71 0 01-.71-.71v-.71h1.42v1.42z" fill="#F5BF23"/><path d="M11.315 27.39a1.296 1.296 0 000 2.589 1.295 1.295 0 000-2.588zm22.045 0a1.296 1.296 0 000 2.589 1.295 1.295 0 00.001-2.588zm-7.348-2.672H16.66a.626.626 0 000 1.252h9.352a.626.626 0 100-1.252zM9.979 22.046H1.962a.626.626 0 000 1.253H9.98a.626.626 0 000-1.253zm11.801-8.501a.626.626 0 00-.886 0l-5.57 5.57-2.897-2.898a.626.626 0 10-.886.886l3.34 3.34a.624.624 0 00.886 0l6.012-6.013a.626.626 0 000-.885z" fill="#F5BF23"/></svg>