<svg width="40" height="40" fill="none" xmlns="http://www.w3.org/2000/svg"><path d="M31.842 29.46a2.05 2.05 0 000 4.098 2.05 2.05 0 000-4.098zm0 2.926a.878.878 0 010-1.753.878.878 0 010 1.753z" fill="#F5BF23"/><path d="M39.642 21.145l-3.407-6.238a1.332 1.332 0 00-1.17-.694H24.637c-.735 0-1.332.598-1.332 1.333v3.289a.586.586 0 101.171 0v-3.29a.16.16 0 01.161-.16h4.375v7.135c0 .742.604 1.346 1.346 1.346h8.47v1.348h-.555c-.823 0-1.493.67-1.493 1.493 0 .823.67 1.493 1.493 1.493h.555v1.17h-2.482a4.994 4.994 0 00-4.504-2.848 4.994 4.994 0 00-4.505 2.848h-2.86v-8.193a.586.586 0 10-1.173 0v3.51h-.786v-.923c0-.62-.504-1.123-1.124-1.123h-2.619a4.372 4.372 0 001.405-3.213V17.07c0-.57-.37-1.053-.882-1.226v-2.413c.512-.173.882-.657.882-1.226v-1.93c0-.674-.4-1.28-1.02-1.543l-4.475-1.91v-2.1c0-.673-.548-1.22-1.22-1.22h-2.362c-.673 0-1.22.547-1.22 1.22V6.82l-1.523.64a.586.586 0 00.453 1.08l1.774-.744h3.392l4.722 2.014c.187.08.307.261.307.464v1.93a.123.123 0 01-.122.123H5.59a.123.123 0 01-.123-.123V10.28c0-.204.122-.387.31-.466l.872-.366a.586.586 0 00-.453-1.08l-.872.365a1.673 1.673 0 00-1.029 1.547v1.925c0 .57.37 1.054.883 1.226v2.414a1.296 1.296 0 00-.883 1.226v2.358c0 1.268.542 2.412 1.405 3.213H3.08c-.619 0-1.122.504-1.122 1.123v.923H.586a.586.586 0 00-.586.586v3.14a2.13 2.13 0 002.128 2.128h.583v.626H.586a.586.586 0 100 1.172h2.71a.586.586 0 00.587-.586V30.54h.612a4.993 4.993 0 004.893 5.956c.945 0 1.866-.266 2.663-.77a.586.586 0 10-.626-.99 3.81 3.81 0 01-2.037.589 3.82 3.82 0 01-3.816-3.816 3.82 3.82 0 013.816-3.816 3.82 3.82 0 013.816 3.816 3.78 3.78 0 01-.41 1.721.586.586 0 001.045.53 4.988 4.988 0 00.442-3.22h2.876v.433a1.6 1.6 0 001.598 1.597h5.147a1.6 1.6 0 001.598-1.597v-.433h1.45a4.993 4.993 0 004.892 5.956 4.994 4.994 0 004.892-5.956h2.106c.64 0 1.16-.52 1.16-1.16v-6.83c0-.49-.124-.975-.358-1.404zm-.814 5.884h-.555a.321.321 0 010-.643h.555v.643zM11.055 6.623V4.722c0-.027.021-.048.048-.048h2.361c.027 0 .049.021.049.048v1.902h-2.458zm7.071 6.875v2.277H6.35v-2.277h11.776zm-12.658 5.93V17.07c0-.067.055-.122.123-.122h13.295c.067 0 .122.055.122.122v2.358a3.216 3.216 0 01-3.212 3.213H8.68a3.216 3.216 0 01-3.212-3.213zm-2.337 4.384h18.215v.874H3.13v-.874zm6.257 2.71a4.994 4.994 0 00-4.504 2.847H2.128a.957.957 0 01-.956-.957V25.86h22.133v3.51h-9.413a4.994 4.994 0 00-4.504-2.847zm14.94 4.45a.426.426 0 01-.426.427h-5.147a.426.426 0 01-.426-.426v-.432h5.999v.432zm7.514 4.353a3.82 3.82 0 01-3.816-3.816 3.82 3.82 0 013.816-3.816 3.82 3.82 0 013.816 3.816 3.82 3.82 0 01-3.816 3.816zm3.223-19.94a.16.16 0 01.141.083l3.407 6.237c.263.482.207.912.215.989h-.287l-2.008-2.008.267-.267a.586.586 0 10-.83-.828l-1.36 1.361a.586.586 0 00.828.829l.267-.267 1.179 1.18h-4.1l-.146-3.228a2.656 2.656 0 00-2.454-2.532v-1.55h4.881zm-4.881 7.134v-4.406c.702.097 1.25.679 1.283 1.406l.144 3.174h-1.253a.175.175 0 01-.174-.174z" fill="#F5BF23"/><path d="M7.34 31.51a2.05 2.05 0 002.049 2.048 2.05 2.05 0 000-4.098c-1.13 0-2.05.92-2.05 2.05zm2.925 0a.878.878 0 01-1.753 0 .878.878 0 011.753 0zm16.948-10.891v-2.036a.586.586 0 10-1.172 0v2.036a.586.586 0 101.172 0zm-13.505-2.165h-2.94a.586.586 0 100 1.172h2.94a.586.586 0 100-1.172z" fill="#F5BF23"/></svg>