<svg width="41" height="39" fill="none" xmlns="http://www.w3.org/2000/svg"><path d="M29.52 5.09h8.313c.54 0 1.03-.221 1.387-.574a1.927 1.927 0 000-2.753 1.967 1.967 0 00-1.387-.573H24.988v15.712h3.934v-3.964c0-.329.267-.596.599-.596.333 0 .601.267.601.596v14.105c0 .49-.202.935-.529 1.257a1.792 1.792 0 01-1.268.524h-5.38v1.578h2.84c1.193 0 2.276.484 3.064 1.264a4.265 4.265 0 011.273 3.036 4.27 4.27 0 01-1.273 3.036A4.35 4.35 0 0125.784 39h-6.739a.6.6 0 01-.602-.596c0-.328.27-.594.602-.594h6.74c.86 0 1.645-.35 2.215-.913a3.094 3.094 0 00.922-2.195c0-.854-.355-1.632-.922-2.195a3.143 3.143 0 00-2.216-.913H9.586a3.14 3.14 0 00-2.215.913 3.078 3.078 0 00-.922 2.195c0 .853.352 1.63.922 2.195a3.15 3.15 0 002.215.913h6.74c.331 0 .599.266.599.594a.598.598 0 01-.6.596H9.587a4.346 4.346 0 01-3.064-1.262 4.27 4.27 0 01-1.274-3.036c0-1.182.488-2.258 1.274-3.036a4.338 4.338 0 013.064-1.264h2.84v-1.578H1.798c-.495 0-.945-.2-1.27-.524A1.76 1.76 0 010 27.043v-8.359c0-.49.202-.936.529-1.26a1.8 1.8 0 011.269-.522h12.21L11.386 5.818a.597.597 0 01.584-.729h11.815V.596A.6.6 0 0124.386 0h13.448c.871 0 1.663.353 2.238.922.572.569.928 1.354.928 2.217 0 .864-.356 1.649-.928 2.218a3.173 3.173 0 01-1.64.863v3.958c.191-.01.384.01.566.059.445.117.844.402 1.092.828.238.404.302.899.179 1.351a1.781 1.781 0 01-.835 1.082l-1.001.571v1.253c.19-.012.383.009.565.058.445.117.844.403 1.092.828.247.425.3.91.179 1.351a1.778 1.778 0 01-.838 1.082l-.998.571v1.253c.19-.01.383.009.565.058.447.12.91.45 1.114.868.23.416.273.886.157 1.311-.12.446-.46.866-.87 1.1l-.966.553v1.253c.19-.01.383.011.565.058.447.12.91.45 1.114.87a1.775 1.775 0 01-.679 2.39l-1 .575v2.948c0 .06-.012.122-.03.182l-1.198 3.666a.6.6 0 01-1.14.005l-1.183-3.624a.59.59 0 01-.047-.229v-1.113a1.835 1.835 0 01-.566-.056c-.433-.117-.942-.473-1.123-.891-.22-.41-.261-.87-.148-1.29.118-.437.472-.873.874-1.103l.963-.55v-1.253a1.77 1.77 0 01-.566-.059 1.795 1.795 0 01-1.091-.827 1.768 1.768 0 01-.18-1.352 1.78 1.78 0 01.838-1.082l.999-.571v-1.253a1.771 1.771 0 01-.566-.058 1.785 1.785 0 01-1.091-.83 1.763 1.763 0 01-.18-1.35c.12-.44.409-.836.838-1.081l.999-.571v-1.253a1.8 1.8 0 01-1.657-.888 1.763 1.763 0 01-.18-1.35c.12-.44.409-.836.838-1.081l.999-.571V6.279h-4.713v3.965a.596.596 0 01-.601.593.596.596 0 01-.6-.593V5.685a.61.61 0 01.17-.412.625.625 0 01.43-.184zM13.012 35.295a.596.596 0 01-.599-.594c0-.328.268-.596.6-.596h1.518c.332 0 .6.268.6.596a.596.596 0 01-.6.594h-1.519zm7.83 0a.598.598 0 01-.602-.594.6.6 0 01.601-.596h1.517a.6.6 0 01.601.596c0 .329-.27.594-.601.594H20.84zm-3.916 0a.596.596 0 01-.6-.594c0-.328.268-.596.6-.596h1.518a.6.6 0 01.602.596c0 .329-.27.594-.602.594h-1.518zM2.48 22.126a.6.6 0 01.602-.595.6.6 0 01.601.596V23.6a.6.6 0 01-.601.596.6.6 0 01-.602-.596v-1.473zm4.794 0c0-.328.268-.595.6-.595a.6.6 0 01.601.596V23.6a.6.6 0 01-1.2 0v-1.473zm-2.397 0a.6.6 0 011.201 0V23.6a.6.6 0 01-1.2 0v-1.473zm18.907-.83h-1.64a.598.598 0 01-.6-.593c0-.33.27-.596.6-.596h1.64v-2.015H18.53v6.527h5.255v-3.322zm1.203-3.204v7.12a.6.6 0 01-.602.596h-6.458a.598.598 0 01-.599-.596v-7.12H1.798a.595.595 0 00-.42.176.58.58 0 00-.177.416v.782h7.727a2.03 2.03 0 011.434.59c.368.364.595.867.595 1.42v2.774c0 .553-.227 1.056-.595 1.419a2.036 2.036 0 01-1.434.591H1.2v.783c0 .162.068.308.177.416a.595.595 0 00.42.175h26.526a.594.594 0 00.42-.175.58.58 0 00.178-.416v-8.95h-3.934zm-2.397-7.848c0 .328-.27.593-.602.593a.596.596 0 01-.6-.593V8.65h-5.64l1.391 5.877h4.25v-1.59c0-.329.268-.596.6-.596a.6.6 0 01.6.596v2.186c0 .328-.27.593-.6.593h-5.324a.598.598 0 01-.586-.459l-1.664-7.034a.596.596 0 01.577-.762h6.996a.6.6 0 01.601.596v2.186zm-7.35 6.659h8.544V6.278H12.728l2.513 10.623zm20.195-13.17a.598.598 0 01-.601-.594.6.6 0 01.601-.596h2.398c.33 0 .599.268.599.596a.596.596 0 01-.6.594h-2.397zm1.796 2.546h-1.194v5.049l1.194-.684V6.279zm0 26.082v-2.174l-1.194.683v1.491l.597 1.83.597-1.83zm1.6-4.461a.593.593 0 00.234-.79.596.596 0 00-.377-.294.593.593 0 00-.454.056l-3.8 2.172a.593.593 0 00-.277.362.581.581 0 00.422.724.59.59 0 00.452-.056c1.267-.724 2.534-1.45 3.8-2.175zm-1.6-1.824V25.04l-1.194.684v1.034l1.194-.683zm1.57-3.3c.16-.105.257-.186.31-.38a.602.602 0 00-.046-.429.595.595 0 00-.377-.295c-.293-.078-.381.034-.595.138l-3.622 2.07c-.162.109-.26.178-.314.383-.054.202-.009.31.078.484.202.299.556.321.853.153 1.237-.709 2.474-1.417 3.714-2.123zm.032-5.163a.594.594 0 00.218-.81.6.6 0 00-.363-.276c-.215-.056-.347-.002-.52.097-1.246.71-2.49 1.423-3.734 2.134a.59.59 0 00-.277.362c-.052.189-.013.308.073.474a.61.61 0 00.776.207c1.276-.728 2.552-1.46 3.827-2.188zm-2.796 2.969v1.032l1.194-.681v-1.035l-1.194.684zm2.794-8.112a.59.59 0 00-.143-1.086.603.603 0 00-.454.058l-3.8 2.173a.592.592 0 00-.277.36.586.586 0 00.422.726.613.613 0 00.432-.045l3.82-2.186zm-2.794 2.97v1.03l1.194-.683v-1.03l-1.194.684zM1.2 25.07h7.727a.83.83 0 00.828-.82v-2.773a.83.83 0 00-.828-.82H1.2v4.413zm12.426 5.332h8.117v-1.578h-8.117v1.578zm12.157 2.32c.552 0 1.052.222 1.412.58a1.97 1.97 0 010 2.8 2.01 2.01 0 01-2.826 0 1.964 1.964 0 010-2.8 2.01 2.01 0 011.414-.58zm.564 1.42a.804.804 0 00-1.129 0 .795.795 0 00-.234.56.79.79 0 00.234.558.8.8 0 001.362-.558.786.786 0 00-.233-.56zm-16.762-1.42c.552 0 1.051.222 1.412.58.363.357.586.854.586 1.4 0 .547-.223 1.042-.586 1.4a2.01 2.01 0 01-2.826 0 1.967 1.967 0 010-2.8 2.01 2.01 0 011.414-.58zm.563 1.42a.8.8 0 00-1.126 0 .785.785 0 000 1.118.79.79 0 00.563.232.79.79 0 00.563-.232.785.785 0 000-1.118z" fill="#fff"/></svg>